<svg width="254" height="254" viewBox="0 0 254 254" fill="none" xmlns="http://www.w3.org/2000/svg"> <path d="M13.5 172C9.9101 172 7 168.978 7 165.251V116.749C7 113.022 9.9101 110 13.5 110C17.0899 110 20 113.022 20 116.749V165.251C20 168.978 17.0899 172 13.5 172Z" fill="#136EF1"/> <path d="M240.5 172C236.905 172 234 168.978 234 165.251V116.749C234 113.022 236.905 110 240.5 110C244.095 110 247 113.022 247 116.749V165.251C247 168.978 244.095 172 240.5 172Z" fill="#136EF1"/> <path d="M188.554 68.04H133.776V39.7582C133.776 36.0257 130.741 33 126.998 33C123.254 33 120.219 36.0257 120.219 39.7582V68.04H65.4413C47.5527 68.04 33 82.5488 33 100.384V188.656C33 206.491 47.5527 221 65.4413 221H188.559C206.447 221 221 206.491 221 188.656V100.388C221 82.5489 206.447 68.04 188.554 68.04Z" fill="#136EF1"/> <path d="M97.5 140C93.9101 140 91 137.002 91 133.304V115.696C91 111.998 93.9101 109 97.5 109C101.09 109 104 111.998 104 115.696V133.304C104 137.002 101.09 140 97.5 140Z" fill="white"/> <path d="M156.5 140C152.91 140 150 137.002 150 133.304V115.696C150 111.998 152.91 109 156.5 109C160.09 109 163 111.998 163 115.696V133.304C163 137.002 160.09 140 156.5 140Z" fill="white"/> <path d="M126.999 183C115.789 183 104.573 178.958 93.6697 170.875C90.7173 168.681 90.123 164.55 92.3421 161.633C94.5564 158.721 98.7597 158.135 101.712 160.324C118.966 173.12 135.046 173.115 152.286 160.324C155.248 158.135 159.442 158.721 161.656 161.633C163.88 164.55 163.281 168.681 160.328 170.875C149.425 178.958 138.214 183 126.999 183Z" fill="white"/> </svg>
